# xmcd
#
# Track frame offsets: 
#        150
#        16050
#        30300
#        43800
#        58425
#        73200
#        87000
#        101175
#        116475
#        129675
#        143550
#        156825
#
# Disc length: 2275 seconds
#
# Revision: 0
# Processed by: cddbd v1.5.1PL2 Copyright (c) Steve Scherf et al.
# Submitted via: ExactAudioCopy v0.95b4
#
DISCID=a408e10c
DTITLE=Margaritys Georgios  - Sta Efkola Sta Thiskola
DYEAR=1900
DGENRE=National Folk
TTITLE0=Ise Y Zoy Mou, Ise To Loulouthi Mou
TTITLE1=Mia Mikry Ap'to Varthary
TTITLE2=Sta Efkola Sta Thiskola
TTITLE3=Ime Katathikasmenos
TTITLE4=Me Xehnas
TTITLE5=Ime Alytys
TTITLE6=Eprepe Na Fygis
TTITLE7=Xero Pia Ine
TTITLE8=To Telefteo Mou Tzigaro
TTITLE9=Me To Ena Me to Thyo
TTITLE10=Se Spiti Akatikyto
TTITLE11=Ego Ime Entaxi
EXTD=
EXTT0=
EXTT1=
EXTT2=
EXTT3=
EXTT4=
EXTT5=
EXTT6=
EXTT7=
EXTT8=
EXTT9=
EXTT10=
EXTT11=
PLAYORDER=
